# xmcd
#
# Track frame offsets:
#	150
#	14182
#	24581
#	33381
#	45595
#	55542
#	68372
#	77255
#	88271
#	100696
#	113823
#	125380
#	136954
#	146053
#	157620
#	170816
#	182464
#	191160
#	207703
#	219145
#	233991
#	246888
#	260141
#	272154
#	284597
#	297828
#	310225
#	320538
#	330811
#	342745
#
# Disc length: 4698 seconds
#
# Revision: 0
# Processed by: cddbd v1.5.2PL0 Copyright (c) Steve Scherf et al.
# Submitted via: audiograbber 1.83.01
#
DISCID=ba12581e
DTITLE=—борник - Ponytails, Hooped Skirts and Bobbysox- Americans Gals Of The '50
DTITLE=s CD4
DYEAR=1900
DGENRE=
TTITLE0=Kay Starr - Wheel Of Fortune
TTITLE1=Gale Storm - Memories Are Made Of This
TTITLE2=The Fontane Sisters - Daddy-O
TTITLE3=Eartha Kitt - Under The Bridge Of Paris
TTITLE4=Jill Corey - I Love My Baby
TTITLE5=Teresa Brewer - Music! Music! Music!
TTITLE6=Georgia Gibbs - Tra La La
TTITLE7=Doris Day - I'm Ready, Willing And Able
TTITLE8=Rosemary and Betty Clooney - Sisters
TTITLE9=Patti Page - Go On With The Wedding
TTITLE10=Eydie Gorme - Mama Teach Me To Dance
TTITLE11=Rosemary Clooney - Mangos
TTITLE12=Teresa Brewer - The Banjo's Back In Town
TTITLE13=Kitty Wells - Hey Joe
TTITLE14=The McGuire Sisters - Something's Gotta Give
TTITLE15=Georgia Gibbs - Happiness Street
TTITLE16=Patience and Prudence - Gonna Get Along Without Ya Now
TTITLE17=Doris Day - Secret Love
TTITLE18=Joni James - How Important Can It Be?
TTITLE19=Peggy Lee - Mr Wonderful
TTITLE20=Patti Page - Allegheny Moon
TTITLE21=The McGuire Sisters - Goodnight My Love, Pleasant Dreams
TTITLE22=Jeri Southern - Fire Down Below
TTITLE23=Jo Stafford - Teach Me Tonight
TTITLE24=Teresa Brewer - You Send Me
TTITLE25=Patti Page - Croce Di Oro
TTITLE26=Keely Smith - The Lip [With Louis Prima]
TTITLE27=The Fontane Sisters - Rollin' Stone
TTITLE28=Brenda Lee - One Step At A Time
TTITLE29=Georgia Gibbs - Great Balls Of Fire
EXTD=
EXTT0=
EXTT1=
EXTT2=
EXTT3=
EXTT4=
EXTT5=
EXTT6=
EXTT7=
EXTT8=
EXTT9=
EXTT10=
EXTT11=
EXTT12=
EXTT13=
EXTT14=
EXTT15=
EXTT16=
EXTT17=
EXTT18=
EXTT19=
EXTT20=
EXTT21=
EXTT22=
EXTT23=
EXTT24=
EXTT25=
EXTT26=
EXTT27=
EXTT28=
EXTT29=
PLAYORDER=
